<svg width="16" height="16" viewBox="0 0 16 16" fill="none" xmlns="http://www.w3.org/2000/svg">
<path d="M2.93769 12.8788C2.62265 12.8788 2.35449 12.7681 2.1332 12.5469C1.91191 12.3256 1.80127 12.0574 1.80127 11.7423V4.25769C1.80127 3.94257 1.91191 3.67436 2.1332 3.45307C2.35449 3.23179 2.62265 3.12115 2.93769 3.12115H13.0623C13.3773 3.12115 13.6454 3.23179 13.8667 3.45307C14.088 3.67436 14.1987 3.94257 14.1987 4.25769V11.7423C14.1987 12.0574 14.088 12.3256 13.8667 12.5469C13.6454 12.7681 13.3773 12.8788 13.0623 12.8788H2.93769ZM7.99997 8.32142L2.73394 4.94802V11.741C2.73394 11.8008 2.75317 11.85 2.79164 11.8884C2.8301 11.9269 2.87925 11.9461 2.93909 11.9461H13.0609C13.1207 11.9461 13.1698 11.9269 13.2083 11.8884C13.2468 11.85 13.266 11.8008 13.266 11.741V4.94802L7.99997 8.32142ZM7.99997 7.34677L13.15 4.05382H2.84997L7.99997 7.34677ZM2.73394 4.94802V4.05382V11.741C2.73394 11.8008 2.75317 11.85 2.79164 11.8884C2.8301 11.9269 2.87925 11.9461 2.93909 11.9461H2.73394V4.94802Z" fill="white"/>
</svg>
