<svg width="16" height="16" viewBox="0 0 16 16" fill="none" xmlns="http://www.w3.org/2000/svg">
<path d="M12.8391 13.532C11.6275 13.532 10.4035 13.2453 9.16697 12.6718C7.93044 12.0983 6.79241 11.2884 5.75289 10.2423C4.7078 9.20169 3.89904 8.06419 3.32661 6.82979C2.75417 5.5954 2.46796 4.37137 2.46796 3.15771C2.46796 2.96265 2.53334 2.79893 2.66411 2.66654C2.79488 2.53415 2.95835 2.46796 3.15451 2.46796H5.23459C5.40297 2.46796 5.54837 2.51924 5.67081 2.62181C5.79325 2.72437 5.8737 2.8592 5.91216 3.02629L6.29421 4.93396C6.32071 5.09251 6.31371 5.23606 6.27321 5.36461C6.23271 5.49314 6.16636 5.60206 6.07417 5.69136L4.57049 7.16409C4.82178 7.61793 5.10334 8.04543 5.41517 8.44657C5.72701 8.84772 6.06425 9.22877 6.42691 9.58974C6.78375 9.94872 7.16623 10.2845 7.57436 10.5971C7.98248 10.9097 8.4265 11.2038 8.90641 11.4795L10.4163 9.97052C10.5148 9.86753 10.6248 9.7982 10.7462 9.76251C10.8675 9.72682 11.0019 9.71838 11.1494 9.73719L12.9593 10.1002C13.1283 10.1394 13.266 10.2235 13.3724 10.3526C13.4788 10.4816 13.532 10.628 13.532 10.7917V12.8455C13.532 13.0416 13.466 13.2051 13.334 13.3359C13.202 13.4666 13.0371 13.532 12.8391 13.532ZM4.12436 6.28526L5.31411 5.14679C5.33334 5.1297 5.34616 5.1062 5.35256 5.07627C5.35897 5.04636 5.35897 5.01858 5.35256 4.99294L5.05449 3.50321C5.04595 3.46902 5.03098 3.44337 5.00961 3.42627C4.98824 3.40917 4.96046 3.40062 4.92627 3.40062H3.50897C3.4812 3.40062 3.45929 3.40917 3.44326 3.42627C3.42723 3.44337 3.41922 3.46474 3.41922 3.49037C3.44443 3.93696 3.51623 4.39754 3.63461 4.87211C3.75298 5.34668 3.91623 5.81773 4.12436 6.28526ZM9.78972 11.9122C10.2239 12.1182 10.6813 12.2756 11.1619 12.3846C11.6426 12.4936 12.0918 12.5583 12.5096 12.5788C12.5352 12.5788 12.5566 12.5703 12.5737 12.5532C12.5908 12.5361 12.5994 12.5147 12.5994 12.4891V11.0865C12.5994 11.0523 12.5908 11.0246 12.5737 11.0032C12.5566 10.9818 12.531 10.9669 12.4968 10.9583L11.1237 10.6654C11.0981 10.659 11.0756 10.659 11.0564 10.6654C11.0372 10.6718 11.0169 10.6846 10.9955 10.7038L9.78972 11.9122Z" fill="white"/>
</svg>
